HIERARCHY
ROOT Hips
{
    OFFSET 0.000000 0.000000 0.000000
    CHANNELS 6 Xposition Yposition Zposition Zrotation Xrotation Yrotation
    JOINT Spine
    {
        OFFSET -0.000000 7.284621 0.000000
        CHANNELS 3 Zrotation Xrotation Yrotation
        JOINT Spine1
        {
            OFFSET -0.000000 19.968920 0.000000
            CHANNELS 3 Zrotation Xrotation Yrotation
            JOINT Neck
            {
                OFFSET -0.000000 21.745657 0.000000
                CHANNELS 3 Zrotation Xrotation Yrotation
                JOINT Head
                {
                    OFFSET -0.000000 13.769711 1.776737
                    CHANNELS 3 Zrotation Xrotation Yrotation
                    End Site
                    {
                        OFFSET -0.000000 17.767368 0.000000
                    }
                }
            }
            JOINT LeftShoulder
            {
                OFFSET 3.594505 17.711157 -0.013107
                CHANNELS 3 Zrotation Xrotation Yrotation
                JOINT LeftArm
                {
                    OFFSET 12.210003 0.000000 0.000000
                    CHANNELS 3 Zrotation Xrotation Yrotation
                    JOINT LeftForeArm
                    {
                        OFFSET 24.535166 0.000000 0.000000
                        CHANNELS 3 Zrotation Xrotation Yrotation
                        JOINT LeftHand
                        {
                            OFFSET 20.235195 0.000000 0.000000
                            CHANNELS 3 Zrotation Xrotation Yrotation
                            JOINT LeftHandThumb1
                            {
                                OFFSET 1.906737 -2.166747 3.033446
                                CHANNELS 3 Zrotation Xrotation Yrotation
                                JOINT LeftHandThumb2
                                {
                                    OFFSET 2.043247 0.000000 1.332553
                                    CHANNELS 3 Zrotation Xrotation Yrotation
                                    JOINT LeftHandThumb3
                                    {
                                        OFFSET 2.665105 0.000000 0.000000
                                        CHANNELS 3 Zrotation Xrotation Yrotation
                                        End Site
                                        {
                                            OFFSET 2.367595 0.000000 0.000000
                                        }
                                    }
                                }
                            }
                            JOINT LeftHandIndex1
                            {
                                OFFSET 7.800290 0.000000 3.033446
                                CHANNELS 3 Zrotation Xrotation Yrotation
                                JOINT LeftHandIndex2
                                {
                                    OFFSET 4.441842 0.000000 0.000000
                                    CHANNELS 3 Zrotation Xrotation Yrotation
                                    JOINT LeftHandIndex3
                                    {
                                        OFFSET 2.220921 0.000000 0.000000
                                        CHANNELS 3 Zrotation Xrotation Yrotation
                                        End Site
                                        {
                                            OFFSET 1.972996 0.000000 0.000000
                                        }
                                    }
                                }
                            }
                            JOINT LeftHandMiddle1
                            {
                                OFFSET 7.800290 0.000000 1.005371
                                CHANNELS 3 Zrotation Xrotation Yrotation
                                JOINT LeftHandMiddle2
                                {
                                    OFFSET 4.886026 0.000000 0.000000
                                    CHANNELS 3 Zrotation Xrotation Yrotation
                                    JOINT LeftHandMiddle3
                                    {
                                        OFFSET 2.665105 0.000000 0.000000
                                        CHANNELS 3 Zrotation Xrotation Yrotation
                                        End Site
                                        {
                                            OFFSET 2.367595 0.000000 0.000000
                                        }
                                    }
                                }
                            }
                            JOINT LeftHandRing1
                            {
                                OFFSET 7.366940 0.000000 -1.005371
                                CHANNELS 3 Zrotation Xrotation Yrotation
                                JOINT LeftHandRing2
                                {
                                    OFFSET 4.441842 0.000000 0.000000
                                    CHANNELS 3 Zrotation Xrotation Yrotation
                                    JOINT LeftHandRing3
                                    {
                                        OFFSET 2.220921 0.000000 0.000000
                                        CHANNELS 3 Zrotation Xrotation Yrotation
                                        End Site
                                        {
                                            OFFSET 1.972996 0.000000 0.000000
                                        }
                                    }
                                }
                            }
                            JOINT LeftHandPinky1
                            {
                                OFFSET 6.933591 0.000000 -3.033446
                                CHANNELS 3 Zrotation Xrotation Yrotation
                                JOINT LeftHandPinky2
                                {
                                    OFFSET 3.553473 0.000000 0.000000
                                    CHANNELS 3 Zrotation Xrotation Yrotation
                                    JOINT LeftHandPinky3
                                    {
                                        OFFSET 1.776737 0.000000 0.000000
                                        CHANNELS 3 Zrotation Xrotation Yrotation
                                        End Site
                                        {
                                            OFFSET 1.578397 0.000000 0.000000
                                        }
                                    }
                                }
                            }
                        }
                    }
                }
            }
            JOINT RightShoulder
            {
                OFFSET -3.500468 17.711157 -0.013107
                CHANNELS 3 Zrotation Xrotation Yrotation
                JOINT RightArm
                {
                    OFFSET -12.210003 0.000000 0.000000
                    CHANNELS 3 Zrotation Xrotation Yrotation
                    JOINT RightForeArm
                    {
                        OFFSET -24.535166 0.000000 0.000000
                        CHANNELS 3 Zrotation Xrotation Yrotation
                        JOINT RightHand
                        {
                            OFFSET -20.235195 0.000000 0.000000
                            CHANNELS 3 Zrotation Xrotation Yrotation
                            JOINT RightHandThumb1
                            {
                                OFFSET -1.906737 -2.166747 3.033446
                                CHANNELS 3 Zrotation Xrotation Yrotation
                                JOINT RightHandThumb2
                                {
                                    OFFSET -2.043247 0.000000 1.332553
                                    CHANNELS 3 Zrotation Xrotation Yrotation
                                    JOINT RightHandThumb3
                                    {
                                        OFFSET -2.665105 0.000000 0.000000
                                        CHANNELS 3 Zrotation Xrotation Yrotation
                                        End Site
                                        {
                                            OFFSET -2.367595 0.000000 0.000000
                                        }
                                    }
                                }
                            }
                            JOINT RightHandIndex1
                            {
                                OFFSET -7.800290 0.000000 3.033446
                                CHANNELS 3 Zrotation Xrotation Yrotation
                                JOINT RightHandIndex2
                                {
                                    OFFSET -4.441842 0.000000 0.000000
                                    CHANNELS 3 Zrotation Xrotation Yrotation
                                    JOINT RightHandIndex3
                                    {
                                        OFFSET -2.220921 0.000000 0.000000
                                        CHANNELS 3 Zrotation Xrotation Yrotation
                                        End Site
                                        {
                                            OFFSET -1.972996 0.000000 0.000000
                                        }
                                    }
                                }
                            }
                            JOINT RightHandMiddle1
                            {
                                OFFSET -7.800290 0.000000 1.005371
                                CHANNELS 3 Zrotation Xrotation Yrotation
                                JOINT RightHandMiddle2
                                {
                                    OFFSET -4.886026 0.000000 0.000000
                                    CHANNELS 3 Zrotation Xrotation Yrotation
                                    JOINT RightHandMiddle3
                                    {
                                        OFFSET -2.665105 0.000000 0.000000
                                        CHANNELS 3 Zrotation Xrotation Yrotation
                                        End Site
                                        {
                                            OFFSET -2.367595 0.000000 0.000000
                                        }
                                    }
                                }
                            }
                            JOINT RightHandRing1
                            {
                                OFFSET -7.366940 0.000000 -1.005371
                                CHANNELS 3 Zrotation Xrotation Yrotation
                                JOINT RightHandRing2
                                {
                                    OFFSET -4.441842 0.000000 0.000000
                                    CHANNELS 3 Zrotation Xrotation Yrotation
                                    JOINT RightHandRing3
                                    {
                                        OFFSET -2.220921 0.000000 0.000000
                                        CHANNELS 3 Zrotation Xrotation Yrotation
                                        End Site
                                        {
                                            OFFSET -1.972996 0.000000 0.000000
                                        }
                                    }
                                }
                            }
                            JOINT RightHandPinky1
                            {
                                OFFSET -6.933591 0.000000 -3.033446
                                CHANNELS 3 Zrotation Xrotation Yrotation
                                JOINT RightHandPinky2
                                {
                                    OFFSET -3.553473 0.000000 0.000000
                                    CHANNELS 3 Zrotation Xrotation Yrotation
                                    JOINT RightHandPinky3
                                    {
                                        OFFSET -1.776737 0.000000 0.000000
                                        CHANNELS 3 Zrotation Xrotation Yrotation
                                        End Site
                                        {
                                            OFFSET -1.578397 0.000000 0.000000
                                        }
                                    }
                                }
                            }
                        }
                    }
                }
            }
        }
    }
    JOINT LeftUpLeg
    {
        OFFSET 8.883684 0.000000 0.000000
        CHANNELS 3 Zrotation Xrotation Yrotation
        JOINT LeftLeg
        {
            OFFSET -0.000000 -38.184189 0.000000
            CHANNELS 3 Zrotation Xrotation Yrotation
            JOINT LeftFoot
            {
                OFFSET -0.000000 -35.840691 0.000000
                CHANNELS 3 Zrotation Xrotation Yrotation
                JOINT LeftToeBase
                {
                    OFFSET -0.000000 -5.774395 13.325527
                    CHANNELS 3 Zrotation Xrotation Yrotation
                    End Site
                    {
                        OFFSET -0.000000 0.000000 3.553473
                    }
                }
            }
        }
    }
    JOINT RightUpLeg
    {
        OFFSET -8.883684 0.000000 0.000000
        CHANNELS 3 Zrotation Xrotation Yrotation
        JOINT RightLeg
        {
            OFFSET -0.000000 -38.184189 0.000000
            CHANNELS 3 Zrotation Xrotation Yrotation
            JOINT RightFoot
            {
                OFFSET -0.000000 -35.840691 0.000000
                CHANNELS 3 Zrotation Xrotation Yrotation
                JOINT RightToeBase
                {
                    OFFSET -0.000000 -5.774395 13.325527
                    CHANNELS 3 Zrotation Xrotation Yrotation
                    End Site
                    {
                        OFFSET -0.000000 0.000000 3.553473
                    }
                }
            }
        }
    }
}
MOTION
Frames:    4
Frame Time:    0.008333
4.285099    63.418640    116.594574    3.285799    -13.756289    4.645031    -1.028833    15.775723    -1.940833    -2.168105    27.195467    -0.168317    3.456671    4.450700    -1.495303    1.817025    -17.473492    -0.903220    11.745015    -4.248782    -17.506409    -25.076763    11.857631    -12.540917    67.564934    -49.138699    -78.344688    -19.357443    -31.848904    -33.817253    -3.799036    9.576380    11.645819    -0.000000    0.000000    13.015369    -0.000000    0.000000    26.030737    -28.862387    6.247823    -11.169370    -58.947815    0.000000    0.000000    -29.473907    0.000000    0.000000    -48.746738    -7.332136    -1.964752    -75.795044    0.000000    0.000000    -46.147518    0.000000    0.000000    -67.561409    -23.182091    2.390274    -92.642258    0.000000    0.000000    -62.821121    0.000000    0.000000    -89.110641    -39.996601    0.571653    -110.000000    0.000000    0.000000    -80.000000    0.000000    0.000000    -11.332326    -5.441126    7.887208    28.258062    25.433496    12.319038    -79.385315    -36.990223    64.657188    8.496819    -46.969601    28.294165    4.252784    3.350510    -2.857332    0.000000    0.000000    -4.025170    0.000000    0.000000    -8.050341    19.152023    0.593291    1.707767    38.321735    0.000000    -0.000000    19.160866    0.000000    -0.000000    39.536964    0.147208    0.819996    61.975571    0.000000    -0.000000    39.237778    0.000000    -0.000000    59.913601    -0.580118    0.143165    85.629395    0.000000    -0.000000    59.314686    0.000000    -0.000000    80.903267    -1.527173    -0.244494    110.000000    0.000000    -0.000000    80.000000    0.000000    -0.000000    29.679888    -20.942951    13.395260    -17.301722    71.862106    12.381499    -18.353018    -27.811146    -12.622257    0.224706    0.981157    -0.236135    -32.445732    -21.607094    -7.870288    16.383089    71.356827    -14.857123    20.913080    -27.418098    6.148475    -0.133650    0.332365    0.213993    
4.302454    63.008541    116.626534    3.345572    -13.771540    4.469913    -1.097733    15.850386    -1.787384    -2.209396    27.080486    -0.112955    3.485276    4.804980    -1.519400    1.739982    -17.894993    -0.907536    11.858830    -4.112314    -17.426430    -24.538992    11.613011    -12.470122    67.654610    -49.533012    -78.408112    -19.336311    -31.728550    -33.767441    -3.898582    9.603632    11.582944    -0.000000    0.000000    12.974458    -0.000000    0.000000    25.948919    -28.896425    6.342856    -11.318725    -59.051239    0.000000    0.000000    -29.525618    0.000000    0.000000    -48.818447    -7.256505    -2.071476    -75.864326    0.000000    0.000000    -46.182167    0.000000    0.000000    -67.654778    -23.140997    2.309083    -92.677414    0.000000    0.000000    -62.838707    0.000000    0.000000    -89.224083    -39.997410    0.498736    -110.000000    0.000000    0.000000    -80.000000    0.000000    0.000000    -11.543149    -5.002997    7.670809    27.152233    25.083921    12.385159    -79.755020    -37.450806    64.771927    8.584953    -46.989937    28.482525    4.239293    3.338007    -2.843369    0.000000    0.000000    -3.995174    0.000000    0.000000    -7.990349    19.067720    0.617025    1.784503    38.154659    0.000000    -0.000000    19.077330    0.000000    -0.000000    39.466816    0.206843    0.887979    61.863617    0.000000    -0.000000    39.181808    0.000000    -0.000000    59.857731    -0.490050    0.190620    85.572586    0.000000    -0.000000    59.286289    0.000000    -0.000000    80.861404    -1.415352    -0.227656    110.000000    0.000000    -0.000000    80.000000    0.000000    -0.000000    29.948286    -21.219418    13.597595    -18.317116    72.740448    13.903032    -18.720837    -28.030409    -13.422273    0.229766    1.003048    -0.241443    -32.794899    -22.140665    -8.116384    16.578138    72.354431    -14.985329    21.141962    -27.731667    6.570451    -0.136569    0.336220    0.218788    
4.316964    62.670845    116.685379    3.370404    -13.835068    4.262889    -1.121713    16.017647    -1.632603    -2.287839    26.758106    -0.050910    3.553069    5.275889    -1.529724    1.602317    -18.258263    -0.890182    11.863829    -3.988856    -17.404171    -24.285587    11.552607    -12.338192    67.707390    -49.769123    -78.571457    -19.299385    -31.630535    -33.734879    -3.973677    9.622949    11.532977    -0.000000    0.000000    12.943535    -0.000000    0.000000    25.887070    -28.959864    6.429513    -11.439501    -59.209045    0.000000    0.000000    -29.604525    0.000000    0.000000    -48.906086    -7.190577    -2.161723    -75.970055    0.000000    0.000000    -46.235035    0.000000    0.000000    -67.753700    -23.105997    2.235587    -92.731071    0.000000    0.000000    -62.865540    0.000000    0.000000    -89.333199    -39.998089    0.428606    -110.000000    0.000000    0.000000    -80.000000    0.000000    0.000000    -11.630645    -4.674535    7.512658    26.317579    25.025814    12.403399    -79.856033    -37.757359    64.993317    8.704825    -47.018246    28.692333    4.254689    3.333001    -2.822055    0.000000    0.000000    -3.964485    0.000000    0.000000    -7.928970    19.007669    0.633369    1.837970    38.035656    0.000000    -0.000000    19.017828    0.000000    -0.000000    39.414558    0.250318    0.936565    61.783890    0.000000    -0.000000    39.141945    0.000000    -0.000000    59.813404    -0.422942    0.225273    85.532120    0.000000    -0.000000    59.266068    0.000000    -0.000000    80.824806    -1.330607    -0.214899    110.000000    0.000000    -0.000000    80.000000    0.000000    -0.000000    30.207815    -21.340111    13.651127    -19.636642    73.421692    15.643375    -19.033861    -28.240074    -14.080255    0.233507    1.021610    -0.244548    -33.024872    -22.541815    -8.072518    17.267036    73.114441    -15.607852    21.315023    -28.012753    6.888638    -0.139419    0.336116    0.223628    
4.328699    62.401848    116.763901    3.361924    -13.933504    4.047330    -1.100037    16.254023    -1.499833    -2.402609    26.280148    0.010226    3.647047    5.776213    -1.527342    1.436998    -18.468798    -0.857334    11.786163    -3.872383    -17.424997    -24.286667    11.621967    -12.150447    67.714951    -49.875645    -78.849426    -19.273016    -31.571392    -33.720493    -4.025186    9.634398    11.495153    -0.000000    0.000000    12.921728    -0.000000    0.000000    25.843456    -29.037495    6.491743    -11.510945    -59.385002    0.000000    0.000000    -29.692501    0.000000    0.000000    -48.996250    -7.147054    -2.221663    -76.087959    0.000000    0.000000    -46.293972    0.000000    0.000000    -67.849785    -23.084581    2.177254    -92.790894    0.000000    0.000000    -62.895447    0.000000    0.000000    -89.437843    -39.998642    0.361341    -110.000000    0.000000    0.000000    -80.000000    0.000000    0.000000    -11.605178    -4.453856    7.421460    25.729486    25.206169    12.383876    -79.717514    -37.934250    65.322464    8.828713    -47.043156    28.884636    4.317125    3.336061    -2.780685    0.000000    0.000000    -3.920022    0.000000    0.000000    -7.840044    18.999802    0.642820    1.866205    38.020542    0.000000    -0.000000    19.010271    0.000000    -0.000000    39.405582    0.270078    0.960156    61.773769    0.000000    -0.000000    39.136883    0.000000    -0.000000    59.803360    -0.395125    0.240906    85.526985    0.000000    -0.000000    59.263500    0.000000    -0.000000    80.813431    -1.297916    -0.209885    110.000000    0.000000    -0.000000    80.000000    0.000000    -0.000000    30.447479    -21.347197    13.572607    -21.161339    73.929306    17.436512    -19.256248    -28.465635    -14.523860    0.236253    1.035240    -0.246826    -33.145748    -22.819830    -7.770648    18.473627    73.648613    -16.729389    21.425812    -28.272854    7.083900    -0.141100    0.331543    0.226663    
